<svg width="24" height="24" viewBox="0 0 24 24" fill="none" xmlns="http://www.w3.org/2000/svg">
<circle cx="12" cy="12" r="12" fill="#FF4332"/>
<path d="M15.1965 7C13.5632 7 12.2248 8.32136 12.0887 10.0113C11.9526 8.32703 10.6142 7 8.98097 7C7.25129 7 5.8562 8.47448 5.8562 10.2949C5.8562 11.0888 6.12274 11.8147 6.56509 12.3819L6.8373 12.7391L12.0774 19H12.1001L17.3401 12.7391L17.6123 12.3819C18.0547 11.8147 18.3212 11.0888 18.3212 10.2949C18.3212 8.47448 16.9205 7 15.1965 7Z" stroke="white" stroke-width="0.9" stroke-linecap="round" stroke-linejoin="round"/>
<path d="M5 13.1983H9.67297L10.8639 11.083L12.0491 15.0811L13.6314 13.0792H19.1777" stroke="white" stroke-width="0.9" stroke-linecap="round" stroke-linejoin="round"/>
</svg>
