<svg width="24" height="24" viewBox="0 0 24 24" fill="none" xmlns="http://www.w3.org/2000/svg">
<circle cx="12" cy="12" r="12" fill="#FF7700"/>
<path d="M12.496 19.8819C10.0159 19.8819 8 17.9035 8 15.4694C8 13.8804 8.85714 12.4355 10.254 11.6488V5.15258C10.254 3.93747 11.2619 2.94824 12.5 2.94824C13.7381 2.94824 14.746 3.93747 14.746 5.15258V11.6488C16.1429 12.4394 17 13.8804 17 15.4694C17 17.9035 14.9841 19.8819 12.504 19.8819H12.496ZM12.496 3.72716C11.6944 3.72716 11.0437 4.36588 11.0437 5.15258V11.8786C11.0437 12.0265 10.9603 12.159 10.8254 12.2252C9.57143 12.8483 8.78968 14.0907 8.78968 15.4655C8.78968 17.4712 10.4524 19.0991 12.4921 19.0991C14.5317 19.0991 16.1944 17.4673 16.1944 15.4655C16.1944 14.0907 15.4167 12.8483 14.1587 12.2252C14.0238 12.159 13.9405 12.0265 13.9405 11.8786V5.15258C13.9405 4.36588 13.2897 3.72716 12.4881 3.72716H12.496Z" fill="white"/>
<path d="M13.7541 15.434C13.7541 16.0844 13.2144 16.614 12.5517 16.614C11.889 16.614 11.3494 16.0844 11.3494 15.434C11.3494 14.7836 11.889 14.2539 12.5517 14.2539C13.2144 14.2539 13.7541 14.7836 13.7541 15.434Z" fill="white"/>
<path d="M12.5516 15.2357C12.3334 15.2357 12.1548 15.0604 12.1548 14.8462V6.26641C12.1548 6.05221 12.3334 5.87695 12.5516 5.87695C12.7699 5.87695 12.9484 6.05221 12.9484 6.26641V14.8462C12.9484 15.0604 12.7699 15.2357 12.5516 15.2357Z" fill="white"/>
</svg>
