<svg width="24" height="24" viewBox="0 0 24 24" fill="none" xmlns="http://www.w3.org/2000/svg">
<circle cx="12" cy="12" r="12" fill="#6041FF"/>
<path d="M6.56812 14.1606C6.56812 14.1606 7.54722 14.1607 5.03679 14.1862" stroke="white" stroke-width="0.9" stroke-linecap="round" stroke-linejoin="round"/>
<path d="M5 11.2861V15.854" stroke="white" stroke-width="0.9" stroke-linecap="round" stroke-linejoin="round"/>
<path d="M19.7371 13.6814L18.0108 12.5809L13.9717 14.6616L17.6383 16.9331L19.7371 13.6814Z" stroke="white" stroke-width="0.9" stroke-linecap="round" stroke-linejoin="round"/>
<path d="M13.3547 14.9105L6.77466 10.6609L9.78318 6L19.105 12.017L13.3547 14.9105Z" stroke="white" stroke-width="0.9" stroke-linecap="round" stroke-linejoin="round"/>
<path d="M8.40009 14.1008C8.40009 13.6504 8.03535 13.2881 7.58738 13.2881C7.1394 13.2881 6.77466 13.6528 6.77466 14.1008C6.77466 14.5488 7.1394 14.9135 7.58738 14.9135C8.03535 14.9135 8.40009 14.5488 8.40009 14.1008Z" stroke="white" stroke-width="0.9" stroke-linecap="round" stroke-linejoin="round"/>
<path d="M8.26855 13.6266L9.63048 12.5371" stroke="white" stroke-width="0.9"/>
</svg>
